<?xml version="1.0" standalone="no"?>
<!DOCTYPE svg PUBLIC "-//W3C//DTD SVG 20010904//EN"
 "http://www.w3.org/TR/2001/REC-SVG-20010904/DTD/svg10.dtd">
<svg version="1.0" xmlns="http://www.w3.org/2000/svg"
 width="77.000000pt" height="77.000000pt" viewBox="0 0 77.000000 77.000000"
 preserveAspectRatio="xMidYMid meet">
<metadata>
Created by potrace 1.14, written by Peter Selinger 2001-2017
</metadata>
<g transform="translate(0.000000,77.000000) scale(0.100000,-0.100000)"
fill="#000000" stroke="none">
<path d="M440 720 c-9 -6 -10 -10 -3 -10 6 0 15 5 18 10 8 12 4 12 -15 0z"/>
<path d="M375 700 c-11 -4 -33 -22 -49 -39 -29 -30 -54 -43 -40 -19 4 7 3 8
-4 4 -7 -4 -12 -14 -12 -22 0 -8 -6 -14 -13 -14 -8 0 -22 -9 -32 -20 -10 -12
-25 -18 -33 -15 -12 4 -13 3 -2 -10 10 -12 9 -16 -4 -21 -9 -3 -13 -10 -10
-15 5 -8 -24 -14 -53 -10 -6 1 -14 -3 -18 -9 -3 -5 -2 -10 4 -10 5 0 8 -11 7
-25 -2 -14 1 -22 7 -18 5 3 7 0 5 -8 -3 -8 -12 -13 -21 -11 -8 1 -18 -2 -22
-8 -3 -5 1 -10 10 -10 9 0 13 -4 10 -10 -3 -5 1 -10 10 -10 9 0 13 -5 10 -10
-4 -6 -12 -7 -18 -4 -7 4 -9 4 -5 -1 4 -4 3 -16 -3 -26 -7 -14 -6 -19 4 -19 7
0 14 -10 14 -22 1 -13 -1 -18 -5 -12 -4 6 -18 17 -32 24 l-25 13 20 -22 c11
-12 31 -33 44 -46 14 -15 21 -31 17 -40 -3 -9 -2 -14 3 -11 12 8 43 -29 34
-39 -5 -4 -3 -5 4 -2 24 14 41 -20 37 -75 -2 -44 -2 -47 5 -20 12 44 17 48 48
31 14 -8 34 -13 45 -11 10 2 18 -3 18 -10 0 -9 3 -9 10 2 9 13 10 13 10 0 0
-13 1 -13 10 0 5 8 10 10 10 3 0 -6 9 -9 20 -6 11 3 28 2 37 -2 34 -13 107
-13 121 1 11 12 11 14 -5 14 -13 0 -10 4 11 15 16 8 36 14 45 13 8 -2 16 4 16
12 1 8 7 14 14 12 7 -1 15 7 18 18 3 11 10 20 15 20 6 0 8 9 5 20 -4 14 0 20
11 20 13 0 14 2 4 9 -19 11 -19 13 0 40 12 17 14 29 7 42 -7 14 -4 23 13 39
21 19 21 21 3 14 l-20 -7 20 23 c11 13 15 21 10 17 -6 -3 -11 2 -12 11 -1 9
-4 26 -6 37 -3 11 -6 26 -6 33 -1 7 -5 10 -11 7 -5 -3 -11 -1 -11 4 -1 6 -2
17 -3 24 0 6 -7 13 -13 13 -7 1 -17 2 -23 3 -5 0 -10 7 -10 15 0 8 -8 13 -17
12 -12 0 -17 6 -17 17 2 14 -1 15 -12 6 -11 -9 -14 -8 -15 7 0 11 -3 13 -6 7
-3 -10 -10 -10 -24 -2 -11 5 -24 7 -31 3 -7 -5 -9 1 -6 18 4 24 3 25 -23 18
-19 -6 -29 -4 -32 3 -2 8 -12 6 -30 -6 -23 -15 -26 -15 -20 -1 5 15 3 15 -26
0 -17 -9 -31 -14 -31 -12 0 12 49 56 71 65 13 5 17 10 9 10 -8 0 -24 -4 -35
-9z m-228 -215 c0 -8 -4 -12 -9 -9 -5 3 -6 10 -3 15 9 13 12 11 12 -6z"/>
<path d="M656 690 c5 -8 9 -19 9 -25 0 -5 9 -9 19 -7 10 2 16 -1 12 -6 -3 -5
1 -9 9 -9 11 0 12 4 4 13 -6 7 -7 19 -3 26 5 10 4 10 -6 1 -11 -10 -18 -9 -34
5 -14 12 -17 13 -10 2z"/>
<path d="M706 613 c10 -7 13 -13 7 -13 -6 0 -13 -9 -16 -20 -3 -13 -1 -18 6
-13 7 4 8 0 4 -11 -4 -10 -7 -20 -7 -22 0 -3 -5 -2 -12 2 -7 5 -8 3 -3 -6 11
-18 38 18 31 42 -2 10 0 20 5 23 13 9 0 32 -18 32 -13 0 -13 -2 3 -14z"/>
<path d="M31 383 c7 -12 15 -20 18 -17 3 2 -3 12 -13 22 -17 16 -18 16 -5 -5z"/>
</g>
</svg>
